<?xml version="1.0" encoding="UTF-8"?>
<svg xmlns="http://www.w3.org/2000/svg" xmlns:xlink="http://www.w3.org/1999/xlink" width="100pt" height="100pt" viewBox="0 0 100 100" version="1.1">
<defs>
<linearGradient id="linear0" gradientUnits="userSpaceOnUse" x1="0.0708973" y1="0.5" x2="0.844232" y2="0.402863" gradientTransform="matrix(73.949219,0,0,89.15625,22.550781,5.519531)">
<stop offset="0" style="stop-color:rgb(27.45098%,32.54902%,32.941176%);stop-opacity:1;"/>
<stop offset="1" style="stop-color:rgb(32.156863%,38.039216%,38.431373%);stop-opacity:1;"/>
</linearGradient>
<linearGradient id="linear1" gradientUnits="userSpaceOnUse" x1="-0.240325" y1="0.530215" x2="1.244013" y2="0.305535" gradientTransform="matrix(81.207031,0,0,83.105469,3.644531,9.425781)">
<stop offset="0" style="stop-color:rgb(100%,80%,0%);stop-opacity:1;"/>
<stop offset="1" style="stop-color:rgb(95.294118%,87.058824%,17.254902%);stop-opacity:1;"/>
</linearGradient>
</defs>
<g id="surface1">
<path style=" stroke:none;fill-rule:evenodd;fill:url(#linear0);" d="M 63.210938 11.574219 C 88.890625 20.289062 95.242188 30.152344 96.5 40.035156 C 97.351562 46.71875 94.800781 52.425781 92.304688 57.03125 C 86.730469 67.316406 79.21875 72.960938 74.199219 76.980469 C 68.148438 81.820312 52.265625 95.109375 37.722656 94.675781 C 41.78125 93.304688 44.945312 91.054688 45.507812 88.710938 C 46.816406 83.210938 42.761719 79.683594 43.113281 77.988281 C 43.460938 76.289062 65.050781 58.699219 66.910156 58.699219 C 68.769531 58.699219 72.5 62.816406 76.308594 63.484375 C 82.675781 64.597656 91.21875 47.4375 87.964844 38.144531 C 84.710938 28.855469 77.667969 22.203125 52.640625 13.554688 C 39.058594 8.863281 29.511719 7.179688 22.550781 7.410156 C 29.785156 4.203125 41.445312 4.191406 63.210938 11.574219 Z M 32.921875 32.546875 C 32.382812 35.765625 32.363281 39.1875 32.863281 42.816406 C 33.402344 46.707031 34.449219 50.019531 36.007812 52.757812 C 34.140625 54.183594 32.140625 54.730469 30.230469 54.3125 C 27.378906 53.683594 25.101562 48.988281 24.449219 45.078125 C 23.800781 41.167969 23.328125 34.578125 26.367188 32.761719 C 28.039062 31.765625 30.421875 31.90625 32.921875 32.546875 Z M 32.921875 32.546875 "/>
<path style=" stroke:none;fill-rule:evenodd;fill:url(#linear1);" d="M 49.035156 15.152344 C 72.28125 23.183594 81.121094 29.703125 84.140625 38.332031 C 87.160156 46.960938 81.15625 60.550781 75.242188 59.519531 C 71.703125 58.902344 68.238281 55.078125 66.511719 55.078125 C 64.785156 55.078125 39.136719 76.363281 38.8125 77.941406 C 38.488281 79.519531 42.253906 82.792969 41.035156 87.898438 C 39.820312 93.003906 26.714844 94.804688 18.71875 88.960938 C 10.855469 83.21875 6.347656 71.464844 4.378906 57.046875 C 2.410156 42.628906 2.835938 17.753906 9.054688 13.167969 C 15.273438 8.582031 25.785156 7.121094 49.035156 15.152344 Z M 25.59375 29.640625 C 22.875 29.484375 20.523438 31.507812 20.265625 34.210938 L 20.257812 34.292969 L 20.25 34.425781 C 19.984375 37.890625 20.105469 41.25 20.609375 44.503906 C 21.160156 48.03125 22.3125 51.773438 24.070312 55.734375 C 25.175781 58.226562 28.0625 59.394531 30.59375 58.375 L 31.511719 58 C 32.675781 57.527344 33.386719 57.226562 33.640625 57.105469 L 33.660156 57.097656 C 36.503906 55.703125 38.558594 54.210938 40.007812 53.078125 L 40.183594 52.941406 C 41.589844 51.835938 43.792969 49.957031 46.101562 47.101562 L 46.261719 46.898438 C 46.523438 46.574219 47.023438 45.941406 47.609375 45.105469 L 47.65625 45.042969 C 47.792969 44.84375 48.269531 43.996094 49.085938 42.496094 C 50.351562 40.175781 49.621094 37.273438 47.40625 35.832031 L 47.042969 35.597656 C 45.1875 34.398438 44.003906 33.6875 43.496094 33.46875 C 41.722656 32.710938 39.558594 31.921875 37.902344 31.480469 L 37.644531 31.414062 C 35.59375 30.871094 33.164062 30.328125 30.570312 29.996094 L 30.421875 29.976562 C 29.78125 29.898438 28.171875 29.789062 25.59375 29.640625 Z M 25.59375 29.640625 "/>
</g>
</svg>
